<svg version="1" xmlns="http://www.w3.org/2000/svg" width="532" height="532" viewBox="0 0 399 399"><path d="M179 9.4c-5.7 1.6-12 4.6-12 5.6 0 .5-.9 1.1-2 1.5-1.1.3-3.8 2.4-6.1 4.5-3.8 3.5-4.2 4.4-4.2 8.6 0 5.7 1.8 7.5 10.1 10.1 3.1 1 5.9 2 6.2 2.4.6.8 1.7.9 12.7 1.2 5.1.1 9.3.4 9.3.7 0 .3 5.7.7 12.8.8 7 .1 18.3.5 25.2.8 6.9.3 17.2.7 23 .8 5.8.1 11.4.7 12.5 1.4 1.1.6 3.6 1.8 5.6 2.6 10.2 4 13.5 21 5.5 28.5-2.1 2-3.1 2.2-7.3 1.7-4.8-.6-8.8-1.3-8.8-1.6 0-.1-.7-.3-1.5-.5-8.6-1.7-18.1-4.1-20.9-5.3-1.9-.7-4.2-1.6-5-1.8-.9-.2-3.6-1.1-6.1-2-2.5-.9-5.4-1.8-6.5-2-1.1-.3-3.1-.8-4.5-1.1-2.5-.5-6.4-.7-10.7-.4-1.1 0-5.8 3.1-10.4 6.8-4.5 3.8-10.7 8.7-13.8 11.1-3.1 2.3-6.3 4.8-7.2 5.5-3 2.3-7.5 4.8-17.8 9.8-11.4 5.5-16.9 10.3-22.1 19.4-2.8 5-6.1 14.7-6.6 19.5-.1 1.4-.3 2.5-.4 2.5-.1 0-.3 1.8-.5 4-.1 2.2-.6 5.3-1 7-.9 3.6-7.7 17-12 24-1.8 2.7-4 6.3-5.1 8-1 1.6-1.7 3.3-1.6 3.7.1.5-.2.8-.6.8-.8 0-3.3 4.3-3.8 6.5-.1.5-.7 3-1.4 5.5s-1.4 5.2-1.6 6c-.6 4.1-1.6 12.9-1.9 16.9-.1 2.5-.7 5.8-1.4 7.3-.6 1.6-.9 2.8-.6 2.8.2 0-.7 3-2.2 6.7-3.2 8.7-4.5 12.9-4.9 17.3-.6 6.2-1.6 21.3-1.8 27.5-.1 4.5-.9 7.4-3.1 11.5-1.7 3-3.3 5.7-3.6 6-1.5 1.2-2.9 7.8-3.5 15.8-.5 8.3-2.9 13.4-9.2 20.2-2.9 3-6.7 8.4-8.6 12-1.9 3.6-4.9 8-6.6 9.8-4.7 5.2-6.5 9.2-6.1 14.4.1 2.3 2.2 2.3 2.8 0 .5-2.1 4-4.5 5.3-3.7 1 .6.9 3.1-.1 5-.3.5-.5 1.9-.5 3 .1 1.7.7 2 4.6 1.8 12.2-.7 16.8-2.7 19.2-8.6.9-2.3 2-5.6 2.4-7.2.4-1.7 2-4.9 3.7-7.3 2.6-4 2.9-5.2 3.2-14 .2-5.3.4-9.8.5-10 .2-.1.3-.6.4-1.1 0-.5 2-3 4.2-5.4 4.7-5.1 10.7-16.7 12.5-24.2.6-2.8 1.6-5.4 2-5.9.5-.6.9-1.7.9-2.6 0-1 .9-2.7 2-4 1.1-1.2 2.2-3.2 2.6-4.4.3-1.1 1.3-2.9 2.2-3.9.8-.9 1.2-1.7.8-1.7-.4 0-.1-1 .6-2.3.6-1.2 1.3-2.7 1.4-3.4.3-1.5 6.5-10.7 7.6-11.1.4-.2.8-1 .8-1.7 0-2.2 3.9-2.5 4.5-.4.4 1 1 1.9 1.5 1.9s.9 3.5.9 7.8c-.1 14.3-.1 14.2 3.2 17.5 3 3 3.1 3.1 1.6 6.3-.9 1.7-1.9 4.8-2.2 6.8-.4 2-1.1 3.6-1.6 3.6-.4 0-1.1 1.6-1.5 3.5-.4 2.4-2.3 5.2-5.9 8.8-6.6 6.6-15.5 14.2-17.6 15-.9.3-3 2.2-4.5 4.3-2.4 3.1-2.9 4.7-2.9 9.8-.1 3.4.1 6.7.3 7.3.5 1.5 4.8 1.7 5.7.3 1.2-1.9 2.5-1 1.9 1.4-1 4 5.1 5.6 10.6 2.7 4.2-2.3 11-9.5 11-11.6 0-1.2.4-2.5.9-3 .5-.6 3.7-6.4 7-13 5.5-10.7 6.8-12.5 12-16.5 5.8-4.4 11.1-11 11.1-13.9 0-2.4 4.9-8 9-10.1 3.6-1.8 3.9-1.8 4.6-.2.6 1.5.6 3.3 0 6.7-.8 4.1-5.5 11.6-10.1 16.1-3 3-5.5 5.8-5.5 6.3 0 .6-.6 1.4-1.4 1.8-.8.4-1.7 2-2 3.6-.2 1.5-.7 3.5-1.1 4.6-.3 1 .1 2.3.9 3 1.2 1 1.8.8 3.1-1.3 1.9-2.9 4-2.5 3.2.6-.6 2 2.7 6.3 4.1 5.4.4-.2 2.7-.7 5.1-1.1 4.3-.6 7.3-1.9 9.7-4.1 1.6-1.4 4-7.4 3.9-9.4-.1-.8 1.2-3.5 2.8-5.9 2.5-3.6 3-5.4 3.2-11.5.2-6.3 1.9-13.6 3.2-13.6 1.7 0 8 10.2 8.7 14.2.3 1.3.5 2.4.7 2.5.1.2.2.6.4 1 1.2 4.4 6.4 10 10.1 10.9 3.8 1 5.9 1.1 6.9.5 1.7-1 10.9-.9 12.3.1.6.6 1.2.7 1.2.2 0-.5 1.7-.9 3.8-1 3.2 0 4.6-.9 8.9-5.2 5.4-5.5 5.9-6.7 6.8-19.1.5-5.9 2.9-12.1 4.7-12.1.4 0 .8-.6.8-1.3 0-2.1 8.9-10.9 15.5-15.3 9.2-6.2 9.8-6.3 12.5-.9.8 1.6 1.8 3.2 2.2 3.5.4.3 2.1 4.5 3.8 9.2 3.1 8.8 3.4 13.2 1.2 20.3-1 3.2-.9 11.1.1 12.1.5.5-.6 4-3.8 11.9-1.5 3.7-1.3 4.4 2.4 8.2 5 5.3 6.9 5.9 8.3 2.8 1.8-4 5.7-2.6 5 1.8-.5 2.7 1.1 2 5.1-2.1 3.5-3.6 3.7-4.1 3.3-9-.3-2.8-.8-5.7-1.3-6.4-1.1-1.8-1.4-3.5-1.8-9.8-.4-6-1-10.2-2-14-1.1-4.3-.6-15.6 1.3-26.6.5-2.8.8-5.9.6-7-.1-1-.3-3.4-.5-5.2-.2-1.7-.7-3.2-1.1-3.2-.4 0-.8-.6-.8-1.3-.1-.6-.9-3-2-5.2-1.5-3.3-1.6-4.1-.5-4.8.8-.4 2.2-.3 3.2.2 2 1.1 5 2.1 5.9 2 .4 0 1 .4 1.4 1.1.8 1.3 14.9 1.8 20 .7 1.9-.5 4.2-1.5 5.1-2.3.8-.7 1.9-1.4 2.3-1.4 1.3 0 7.1-6.5 7.1-8 0-1.7-3.3-2.1-5.2-.7-.7.5-1 1.4-.6 2 .3.6.1.7-.6.3-.9-.6-.9-1.1-.1-2.1s.4-1.3-1.6-1.3c-1.5.1-2.1.4-1.4.8.8.5.7.9-.4 1.3-1 .4-1.6.1-1.6-.8 0-.8-.5-1.5-1.1-1.5-.5 0-.7.5-.3 1.1 1.9 3.1-8.8-4.3-17.7-12.2-3.9-3.5-7.4-6.6-7.8-6.9-.4-.3-.6-5.5-.6-11.5.1-6.1-.2-11.7-.6-12.6-2.4-4.8-3.4-17-2-23.6.7-3.2 1.3-6.6 1.5-7.5.1-1 .5-2 .8-2.3.9-.9-.1-13.5-1.3-17.5-1.9-5.9-6.1-14.3-8.9-18-2.9-3.8-7.4-12-6.5-12 .3 0-.4-1.8-1.5-4-1.1-2.1-2-4.4-2-5 0-.6-1.4-3.1-3-5.5l-3.1-4.5 1.6-5.5c.9-3 1.6-5.7 1.5-6 0-.3.6-1.8 1.4-3.4.9-1.6 1.3-3 1.1-3.3-.3-.2-.7-2.1-1-4.1-2.2-13.8-14.9-24.5-30.9-26.2-1.7-.2-3.1-.4-3.1-.5 0-.6-12.4-1-32.2-1.3-12.3-.1-22.3-.5-22.3-.9s-1.1-.3-2.4.2c-1.3.5-2.6.6-3 .3-.3-.3-5.4-.8-11.3-1-14.7-.6-20.3-2.2-22.6-6.1-1.7-2.9-1.7-3.3-.2-5.6 1.9-2.8 5.8-4.5 9.5-4 6.3.9 9 1.5 9 2.2 0 .4.9.8 1.9.9 1.1.1 4.1.9 6.8 1.8 2.6 1 6.2 1.9 7.8 2.2 6.4 1 7.5 1.2 8.5 1.8.5.3 1 .3 1-.2 0-.4 2.4-.8 5.3-.8 2.8 0 5.7-.2 6.2-.4.6-.3 1.7-.7 2.6-.8.9-.1 2.9-.8 4.5-1.4 1.6-.7 3.2-1.2 3.6-1.1.4.1.5-.4.2-1.2-.3-.8-1.3-1.3-2.2-1.2-2.9.5-10.6-1.4-12.1-2.9-1.8-1.7-2-1.7 6.9-2 3 0 6.4.3 7.5.9 3.8 1.8 15.2 2.7 17.2 1.3 1.6-1.2.5-3.7-1.6-3.7-1 0-2.1-.3-2.4-.7-.9-.9-10.7-4.3-10.7-3.7 0 .3-.9 0-2.1-.6-1.1-.6-4.4-1.8-7.2-2.5-6.9-1.8-38.5-1.8-44.7-.1zm29.5 12.8c5.5 1.5 6 3.5.8 3-4.5-.4-8.4-2.1-7.7-3.4.7-1.1 1.5-1 6.9.4z"/><path d="M192.9 326.4c-9.6 4.2-8.4 18 1.6 18.1 1.9.1 3.5-.2 3.5-.6 0-.4.9-1.1 2-1.4 2.2-.7 2.4-1.3 1.1-3.4-.7-1.1-1.2-1.1-3.2.2-2.4 1.5-6.8.8-7-1 0-.4-.2-1.8-.5-3-.3-1.5.5-2.9 2.8-4.7 3.1-2.4 3.3-2.4 6-.8 3.9 2.3 5.9.3 2.7-2.7-2.3-2.2-5.1-2.4-9-.7z"/><path d="M206.3 326.4c.2.6-.2 2.8-.9 4.8-.7 2.1-1.1 3.8-.7 3.8.3 0-.1.8-.8 1.7-1 1.1-1 1.4-.1.9 1.5-.9 1.5-.5.2 2.8-.6 1.8-.6 2.6.1 2.6.6 0 .8.4.5.9-.4.5.3.7 1.4.4 1.1-.3 1.8-.8 1.6-1.2-.2-.3.2-2 .8-3.6l1.3-3 2 4c1.4 2.6 2.8 4.1 4 4.1 2.3 0 2.8-3 .7-4.7-1.2-1-.9-1.7 1.6-4.5l3-3.4-1.9-3.3c-1.7-3-2.1-3.2-7.5-3.3-3.6 0-5.5.3-5.3 1zm9 4.1c.7 1.7 0 2.2-3.6 2.9-2.1.4-2.7.1-2.7-1.3 0-1 .3-2.1.7-2.4 1.2-1.3 5.1-.7 5.6.8zm6.4-3.8c.3 1 1 2.3 1.4 2.9.5.6.6 1.4.2 1.7-.3.4-.1.7.5.7 1.6 0 2.5 6.1 1.3 9.2-.6 1.7-.7 2.9-.1 3.3.6.4 1 .2 1-.4 0-.6.7-.8 1.5-.5 1 .4 1.5 0 1.5-1.5 0-1.2-.1-2.2-.2-2.4-.4-.3 4.2-6.7 6.5-9.2 1-1.1 2.3-2.8 2.9-3.8.8-1.7.7-1.8-1.3-1.2-1.2.4-3.3 2-4.7 3.6-3.1 3.7-3.9 3.6-5.6-.6-1-2.4-2.2-3.5-3.5-3.5-1.5 0-1.9.5-1.4 1.7zm17.4.2c-.5.9-.7 2.6-.5 3.8.2 1.2-.1 2.5-.6 2.8-.6.4-.8.9-.6 1.3.2.4.1 2.6-.3 4.8-.7 3.9-.6 4.1 1.6 4.1 1.7 0 2.3-.5 2.3-2.1 0-2.9 1.1-4.2 3.5-4 3.2.2 6.3-1.3 8-3.9 1.3-2 1.4-2.9.4-5.1-1.3-2.8-1.3-2.8-8.2-3.1-3.5-.1-5.1.3-5.6 1.4zm9.9 3.6c1.2 1.5.5 2.2-3.2 2.9-1.9.3-2.7 0-3.1-1.4-.9-3.6 3.6-4.7 6.3-1.5zm4.5-4.5c-.8 1.3 1.3 3.1 3.1 2.8 2.1-.3 2.2 1.5.9 11.2-.6 4.2-.5 4.6 1.4 4.6 1.7 0 2.2-.9 2.8-5.1.4-2.7.7-6 .7-7.3 0-1.3.6-2.3 1.5-2.4.9 0 2.1-.2 2.8-.2 2.2-.2 3.6-2.3 2.1-3.2-1.5-1-14.7-1.3-15.3-.4zm22.5-.2c-2.7.8-7.1 6-7.2 8.4-.4 7 1 8.8 8.3 10.4 2.4.5 9.7-5.1 10.1-7.8.6-3.7-.9-9.1-2.9-10.2-2-1.2-6-1.6-8.3-.8zm7 7.2c.6 4.7-3.6 8.4-7.6 6.9-2.9-1-3.7-3.6-2.2-7 1.7-3.8 5.7-5.3 8-3 .9.9 1.7 2.3 1.8 3.1zm-76 14.2c0 .4-.6.5-1.4.2-2.3-.9-3 1-4.2 11.5-.3 3.1-.7 6-.8 6.5 0 .6 2.8 1 6.3 1 6 .1 6.4 0 6.6-2.2.2-2.1-.2-2.3-3.9-2-3 .2-4.2-.1-4.4-1.3-.2-1.1.8-1.6 4-1.8 3.8-.2 5.7-1.3 5.8-3.4 0-.6-4-1-6.6-.6-.9.1-2.4-2.4-1.9-3.2.3-.4 2.3-.5 4.5-.4 2.9.2 4-.1 4-1.1 0-.8.1-1.7.3-2.2.1-.4-1.7-1-4-1.3-2.4-.3-4.3-.2-4.3.3zm-70.4 1.5c-.5 1.7-1.4 7.7-2.1 13.4-.1 1.5-.5 3.2-.9 3.8-.5.7.3 1.1 2 1.1 1.5 0 2.5-.2 2.2-.6-.3-.3 0-2.5.8-5 .7-2.4 1.6-6.7 1.9-9.4.5-4.5.4-5-1.4-5-1.1 0-2.2.8-2.5 1.7zm7.3-.9c0 .4-.3 1.6-.6 2.7-.2 1.1-.6 3.1-.8 4.5-.7 4.4-1.6 8.4-2.1 8.9-.2.2.1 1 .7 1.7 1.3 1.6 5.1.1 4.8-1.9-.1-.7-.1-2.9 0-5.1l.1-3.9 1.9 2.4c1 1.3 2.1 3.4 2.5 4.6.7 2.3 3.1 4.6 5 4.9 1.3.2 3.2-8 3.8-15.6.3-2.9 0-3.5-1.7-3.5-1.1 0-2.1.7-2.1 1.5-.1.8-.3 1.7-.4 2-.1.3-.3 1.7-.4 3.2-.2 4.2-1.2 4.2-2.9 0-.8-2.1-2.3-4.4-3.2-5.2-1.9-1.6-4.5-2.2-4.6-1.2zm21.1 0c-5.6 2-4.8 9.4 1.3 11 3.4.9 4.4 3.5 1.4 4-1 .2-2.9-.3-4.2-1.2-2.1-1.4-2.5-1.4-3.6 0-1.9 2.3 1.1 4.7 6 4.9 3.1.2 4.5-.3 6-2.2 3.6-4 2.1-8.8-2.9-9.5-1.7-.2-2.6-1-2.8-2.5-.3-1.8.1-2.1 2-1.6 1.3.3 2.8 1 3.4 1.5.7.5 1.6.3 2.2-.4 2.4-3-3.8-5.8-8.8-4zm12.9.9c-.1 1-.3 2.7-.4 3.8-.2 1.1-.5 4.1-.8 6.6-.2 2.6-.7 5.1-1.1 5.7-.5.9 2.3 2.7 3.1 1.9.2-.2.5-2.1.7-4.3.3-2.1.5-3.9.6-3.9.2 0 .5-1.8 1.5-7.5.6-3.6.5-4-1.4-4-1.3 0-2.1.7-2.2 1.7zm6-.3c0 .6-.3 3.1-.6 5.6-.3 2.5-.6 6.1-.7 8-.1 3.4 0 3.5 4.4 4 7.8.9 11.2-2 12.6-10.7.8-5-2.6-7.7-10-7.8-3.3-.1-5.6.3-5.7.9zm10.5 4.8c1.6 2.2 1.1 6.8-.7 8-2.1 1.4-7.2.5-6.8-1.2.2-.8.5-2.9.7-4.5.1-1.7.3-3.2.4-3.5.1-.3.2-.8.2-1.1-.2-1.4 5 .5 6.2 2.3zm25-5.4c-.6.4-1.1 1.4-1.2 2.2 0 .8-.3 2.8-.6 4.5-.3 1.6-.7 4.4-1 6.2-.2 1.8-.7 3.7-1 4.2-.7 1 3.2 2.6 4.1 1.7.3-.3.6-2 .5-3.6-.1-3.9 1.8-3.5 3.8.8 1 2 2.2 3.2 3.6 3.2 3.1 0 3.4-.8 1.6-4-1.6-2.8-1.6-3 .6-5 1.2-1.1 2.2-2.4 2.3-2.8 0-.4.2-1.5.4-2.5.5-2.9-3.4-5.7-7.9-5.7-2.3 0-4.6.4-5.2.8zm8 4.7c.5 1.5-1.3 3.2-3.1 2.9-.7-.1-1.7-.2-2.3-.3-1.5-.2-1.2-1.7.5-3.5 1.7-1.7 4-1.2 4.9.9zM184 369.2c0 .6-.6.8-1.3.5-1.9-.7-4.7 1.7-5.6 4.9-1.1 4.2-.5 5.2 4.2 6.5 3.8 1 4 1.2 2.3 2.5-1.6 1.1-2.3 1.1-4.9-.2-2.4-1.3-3.1-1.3-3.8-.3-.8 1.3.5 3.7 2.8 5.2.7.4 1 1.3.7 2-.2.7.6 1.3 2.1 1.3 1.6.1 2.2-.2 1.8-1-.4-.6.1-.5 1.1.3.9.8 1.6 1 1.4.4-.2-.6 1-2.5 2.5-4.2 3.5-4 3.2-7.1-.8-9.1-5.9-3-6.2-3.3-3-4.2 1.8-.4 3.1-.4 3.3.2.5 1.3 2.9 1.3 3.7-.1.4-.5-.1-1.9-1-2.9-1.9-2.1-5.5-3.3-5.5-1.8zm-97 2c-4.4 4.1-1.7 9 5.3 9.7.4.1.7.7.7 1.5 0 2.1-3.1 2.5-5.8.8-2-1.3-2.4-1.3-3.6.4-1.6 2.1-1.2 3.4 1 3.4.8 0 1.4.4 1.4 1 0 .5.8 1 1.8 1 1.4 0 1.5.2.2 1-1.7 1.1-1.7 1 2.7 1.5 1.8.2 3.6-.1 3.9-.7.5-.7.2-.8-.7-.3-1.1.7-1.1.5.1-1.1.8-1 2.1-2.5 2.8-3.2.7-.8 1-1.7.7-2.2-.3-.5-.1-1.1.5-1.5 1.9-1.2-1-4.4-5-5.5-2.2-.6-4-1.5-4-1.9 0-1.2 4.9-2 5.6-1 .3.5 1.4.9 2.5.9 1.9 0 2.6-2.5 1.1-4.6-1.2-1.8-9-1.2-11.2.8zm14.9-2c-.1.2-.3 1.9-.4 3.8-.6 6.6-1.3 12.5-1.9 14.8-.3 1.6 0 2.2 1.2 2.2 1.5 0 1.5.2.2 1s-1.2 1 .3 1c.9 0 1.7-.3 1.8-.8.1-.9.7-5.8 1.4-10.7.5-3.9.9-6.4 1.7-9.5.2-.9-.6-1.6-1.9-1.8-1.3-.2-2.4-.2-2.4 0zm10.3 1.4c-3.4 1.4-5.3 4.9-5.7 10.3-.2 3.8.1 4.4 3.1 6.4 1.9 1.2 3.4 2.7 3.4 3.3 0 1.2 3.6 1.2 4.7-.1.5-.4.2-.5-.6 0-.9.5-1.2.4-.7-.3.4-.7 1.3-1.2 2-1.2 1.8 0 4.1-2.9 5.4-6.7 1.3-4 .5-4.7-5.5-5-3.6-.1-4.3.1-4.3 1.7 0 1.1.9 2.4 2 3 1.4.8 2 .8 2 0 0-.6.4-.9 1-.5 1.9 1.2-.2 3.2-3.3 3.1-6.3-.2-6.8-8.1-.7-10.6 2.3-1 3.3-.9 5.3.5 2.4 1.5 2.6 1.5 3.5-.2.8-1.3.5-2.1-1-3.5-2.3-2-6.3-2-10.6-.2zm16.1-.9c-.7.2-1.3 2-1.3 3.8 0 1.9-.4 4.4-.9 5.8-.5 1.3-1.2 4-1.5 6-.5 3.2-.3 3.5 1.4 3.2 3.3-.6 3.7-1.3 3.7-5-.1-1.9.2-3.5.6-3.5h1.7c.6 0 1 .5 1 1 0 .6 1 2.6 2.3 4.5 1.8 2.8 2.7 3.4 5.2 3.1 1.7-.1 3.7.2 4.5.8.8.6 1.2.7.8.2-1.2-1.5 2.5-4.1 5.9-4.1 2.4-.1 3.3.3 3.3 1.6 0 .9.9 1.9 2 2.2 1.1.3 2 .1 2-.4 0-1.6 2.8-1 4.2.9.9 1.2 2.6 1.7 5.7 1.7 4.3 0 4.5-.1 4.8-3.2.4-3.1.2-3.3-3.5-3.9-4.4-.7-4.6-1.4-2.7-9.1 1.4-5.5 1.2-6.3-1.6-6.3-2.1 0-2.8 2-3.4 9.7-.2 3.2-.5 6-.6 6.3-.1.3-.1.8 0 1.2 0 .5-.3.8-.8.8s-1.2-1.9-1.6-4.3c-.9-5.1-1.2-6.6-1.9-9.2-.2-1.1-.5-2.5-.5-3.2-.1-1.4-4-1.4-5.8 0-1.3.9-2.5 3-6.9 11.9-1.3 2.7-2.9 4.8-3.5 4.8-.5 0-.7-.5-.4-1 .4-.6.8-2 1.1-3.3.4-2.5 1.4-7 2.6-11.6.2-1-.6-1.6-2.4-1.7-2.5-.2-2.8.1-2.9 2.7-.1 1.6-.3 3.3-.4 3.9-.1.5-.3 1.8-.4 2.7 0 1-1.2-.4-2.7-3.2-3.3-6.2-4.3-7-7.1-5.8zm26.3 10.1c-.7.6-4.6 1-4.3.4.2-.4.7-1.6 1.1-2.6.6-1.9.7-1.9 2 0 .8 1 1.3 2 1.2 2.2zM169 390c0 .4-.7.7-1.5.6-2.3-.3-2.6-1.2-.5-1.3 1.1-.1 2 .2 2 .7zm3.4-.2c.3.5-.1.9-.9.9s-1.2-.4-.9-.9c.3-.4.7-.8.9-.8.2 0 .6.4.9.8z"/></svg>